PathFileType	4	(X/Y/Z)	statics_05.trc	
DataRate	CameraRate	NumFrames	NumMarkers	Units	OrigDataRate	OrigDataStartFrame	OrigNumFrames	
150.00	150.00	6	26	mm	150.00	631	720	
Frame#	Time	FT1			FT2			FT3			FT4			FT5			DP2			DP3			DP4			DP5			PP2			PP3			PP4			PP5			IP			MP1			MP2			MP3			MP4			MP5			CMC1			CMC2			CMC5			RS			US			EM			EL			
		X1	Y1	Z1	X2	Y2	Z2	X3	Y3	Z3	X4	Y4	Z4	X5	Y5	Z5	X6	Y6	Z6	X7	Y7	Z7	X8	Y8	Z8	X9	Y9	Z9	X10	Y10	Z10	X11	Y11	Z11	X12	Y12	Z12	X13	Y13	Z13	X14	Y14	Z14	X15	Y15	Z15	X16	Y16	Z16	X17	Y17	Z17	X18	Y18	Z18	X19	Y19	Z19	X20	Y20	Z20	X21	Y21	Z21	X22	Y22	Z22	X23	Y23	Z23	X24	Y24	Z24	X25	Y25	Z25	X26	Y26	Z26	

631	4.2	405.05721077774626	136.919221599246	-175.0354344808903	425.24391766808543	135.9644226665368	-273.5540947925068	462.3151759253676	135.66374509855822	-295.78736274810484	492.57451900141683	130.52739305383201	-295.4126230110264	530.0676671190214	131.7245455717532	-279.94741484553884	432.517564753603	147.28945784100466	-257.2528206555523	466.81873010931724	145.86016221826037	-278.36097576145795	499.6899955897442	139.83481505628302	-278.40882702089664	535.5495724231272	136.60359081505553	-262.34513416612344	443.7993348013709	160.8165223324994	-234.37923345958723	472.9759819529465	162.182740647441	-250.5660498659491	504.10943723705554	155.18119941283626	-251.60252716194114	538.098694035414	142.57887365986613	-242.52774154282426	423.2648897862683	137.0813836667623	-160.42731678863802	444.96074765401215	143.67332878865227	-138.61325063097124	466.248087789434	169.98678079053755	-192.55882260537712	493.32878103843024	171.6487455843352	-203.73272144246928	513.5372302276332	162.6125524919516	-206.35752667662393	535.4511822028231	149.25439279619718	-209.15718530305378	478.46818145356855	146.27413879692753	-118.42911445193346	495.4552343064475	172.0973391532267	-157.47714324089742	532.0578403163864	162.01123101449468	-172.38846496150992	519.0430078155377	165.4352198755937	-98.70861021174464	560.458516105655	164.90666310485207	-127.50977614081845	671.1079976742676	41.01066055422603	103.06716506701646	724.2095314604186	91.68074175195778	77.15320753534054	
632	4.20667	405.0323224170696	136.81790259114385	-175.02901655782912	425.22252285641315	135.8517414321913	-273.55115353387396	462.28789463413216	135.54823225537774	-295.7816765965561	492.543047660306	130.4192358367716	-295.40799460078523	530.0387195524773	131.62436370395386	-279.94483607694116	432.4947624202381	147.17938533731336	-257.25000667638375	466.78797862415496	145.74927133114122	-278.35779148364196	499.65962097185854	139.73189907558552	-278.4080077251704	535.5220129057291	136.50767689024522	-262.3470224068782	443.771353764273	160.71294297847678	-234.37918559482128	472.94299961158094	162.0781765545166	-250.56609957890674	504.0810544946453	155.08078140028869	-251.60281864067616	538.0704085767819	142.48526490594043	-242.52869088928	423.24559430096565	136.9863706272895	-160.42269279605105	444.93933134740655	143.58236921296435	-138.6097101173724	466.22412290118774	169.89128423345696	-192.55980248645733	493.2959580709226	171.5565977763151	-203.73733692555922	513.5064101199761	162.51829176628783	-206.35676318480026	535.4245690623525	149.16461567446743	-209.15899388609085	478.4434204616035	146.18887393722204	-118.42886676544697	495.4320974422716	172.01091393611347	-157.48063501031186	532.0311711341506	161.92389430170564	-172.3900418039671	519.0196125845002	165.36281444760522	-98.71286891438393	560.4332069702313	164.83208636224032	-127.51408874086694	671.1043489585537	40.97395361401025	103.07241217026443	724.2010737802203	91.6489162905157	77.1510925660604	
633	4.21333	405.00703706231667	136.71137282185427	-175.0213960646528	425.20030064587996	135.73275143924843	-273.5478085434064	462.2594824300422	135.42827416473648	-295.7763022988724	492.510243296883	130.30722745007378	-295.4040500217316	530.0091041299576	131.52113263134333	-279.9427348933083	432.4707679980965	147.0641196274965	-257.2470874384975	466.7558618418753	145.63430095110175	-278.3549535595218	499.6282481952257	139.62497130188268	-278.4075694311497	535.4933292887613	136.40845668989343	-262.3494732276699	443.74268497653054	160.6034587789385	-234.37877678945787	472.9083513592696	161.96995895355784	-250.5671368236733	504.0500149859722	154.97664763641868	-251.60452146695116	538.0417371899206	142.38863502432645	-242.53080249224254	423.226052974186	136.8855306268893	-160.41683832774046	444.91866104157486	143.48880215546	-138.6059855270895	466.1993890854789	169.79328492438742	-192.56185284282276	493.2631465584944	171.46006760516573	-203.74152337270766	513.4752862774429	162.42036618385174	-206.35710264077917	535.3965402661661	149.07143155239402	-209.16133374578362	478.4215188393342	146.1010057199251	-118.42818417213991	495.407679874089	171.9215694714488	-157.48501536854909	532.0048485577965	161.83722154005181	-172.39195398058098	518.9963121104637	165.28800055932552	-98.71801825281514	560.4096059814133	164.75650593133813	-127.5199480970052	671.1010007764604	40.93670908670432	103.07724041993535	724.1926676387959	91.61623932533932	77.14796954491432	
634	4.22	404.9820767526806	136.6011077106001	-175.01326515955267	425.1766469878866	135.60872922837447	-273.54452778808513	462.2296220642202	135.3049175400809	-295.771884619814	492.4765680703522	130.1918193390898	-295.40148439923877	529.9791153043014	131.4147414032463	-279.94174026778995	432.4451884718783	146.9443946452331	-257.244604952798	466.7225965499912	145.51606234470452	-278.3530042859202	499.5962078676915	139.51420641358607	-278.40786210562896	535.4636224038627	136.3052502150741	-262.35232789201774	443.71411919470324	160.4894206515038	-234.37864163577507	472.87281387490833	161.85871284865266	-250.56959626699268	504.01687487066823	154.86940238686813	-251.6084011153133	538.013132236676	142.2887787286808	-242.53442956001862	423.20582963632353	136.78003550785866	-160.41026022669203	444.89874929768246	143.39317486143523	-138.6025428921444	466.17345357034066	169.69297281654735	-192.56565487820717	493.2314950101523	171.3598387510279	-203.74556820046413	513.4446617387202	162.31954376680773	-206.35956401323153	535.3674117578173	148.97496556892864	-209.16486203902977	478.40303929021525	146.01134619565903	-118.42752230609152	495.38214712219275	171.82973502469954	-157.49083962395278	531.9792064228151	161.75104808757584	-172.3953910876002	518.9735448074234	165.21056331340293	-98.72463217935956	560.3879138879305	164.67932466230462	-127.52788683397213	671.0977160160523	40.898770800194775	103.08171848992596	724.184057248335	91.58272488428165	77.14350664635501	
635	4.22667	404.95801646222696	136.488452134285	-175.00549067447346	425.1512015550783	135.4812329382475	-273.54190054305474	462.19814268689674	135.17919646816762	-295.76908158621393	492.44263707351814	130.07350890329283	-295.40088116038334	529.949129666576	131.30502031726118	-279.9424677067575	432.41798608207716	146.82116587954005	-257.2433112694456	466.68864072587996	145.39527781954055	-278.35249132506374	499.56396579800446	139.39992404120892	-278.40935395147477	535.4334308912722	136.1978920041445	-262.35578659568307	443.68636002071054	160.37240174304432	-234.37950309986226	472.8372442867874	161.74502023005235	-250.57389512424277	503.9826273989978	154.7596652560404	-251.61508706745522	537.9849965233527	142.1857385478196	-242.53977259253742	423.1846502882931	136.67150884140815	-160.40376555524824	444.87946476560046	143.29579959135341	-138.5999724586457	466.146081973416	169.59048070944783	-192.57185382335453	493.2019734346851	171.256638707555	-203.7500211203883	513.4151570694802	162.21680911316054	-206.36507945452476	535.337709614784	148.8754678392479	-209.17023012228498	478.3880318242849	145.92048382072676	-118.42749546590116	495.3556851664629	171.73580687723936	-157.49857182872336	531.9543340709631	161.66439743808036	-172.40141547759322	518.9516222612573	165.13046906943697	-98.73320925579439	560.3679607537152	164.59995296661612	-127.53828519201916	671.0942687291192	40.86020300619182	103.08579477295882	724.1749419065688	91.54848858662457	77.13749265402149	
636	4.23333	404.93525510209685	136.37450937040472	-174.99906351318188	425.1240949254588	135.35183725894672	-273.54062064234665	462.16531753431184	135.05206403032193	-295.7685755253129	492.40921402000356	129.9528059871557	-295.4026741083145	529.9196605576484	131.19198459166154	-279.94546830183276	432.3896261665234	146.69572028816899	-257.24410064927383	466.6547599072524	145.2726296945811	-278.3539734228868	499.53228783548593	139.2826471937898	-278.4126060896958	535.4036721260251	136.0868688963338	-262.3604262379355	443.65991272440925	160.25384506194348	-234.38216310762897	472.80266928091623	161.62946139014832	-250.58047046115783	503.9485405464772	154.6479590796679	-251.62500943755427	537.9577453442798	142.079825931098	-242.54689438035066	423.16254725776093	136.5618220818058	-160.39847747047315	444.8606516368394	143.1968830554032	-138.59904849644764	466.11740298788976	169.4859268881147	-192.58090616486248	493.175213763789	171.15113049314658	-203.75573464692317	513.3871391210932	162.11310322212333	-206.3743275860899	535.3081473297324	148.7733571603664	-209.17796404802732	478.3759630151754	145.8287953634303	-118.42882910027167	495.32841088766884	171.64006313663205	-157.50843831036312	531.9303117564308	161.57633188841527	-172.41063124582385	518.9307186045384	165.0478904291347	-98.74415266670987	560.3493209175645	164.51800767273417	-127.55136071569098	671.0904672802806	40.82117731823794	103.0892989363942	724.1649946807835	91.51373604403764	77.12974956119777	
